<svg version="1.2" xmlns="http://www.w3.org/2000/svg" viewBox="18.51334298978405 2.7265625 302.6121074157126 270.6484375" width="304" height="272">
	<style>
		.s0 { fill: #3564e4 } 
		.s1 { fill: #3664e3 } 
	</style>
	<g id="Layer 1">
		<path id="path1" class="s0" d="m289.75 2.75c1.73-0.01 1.73-0.01 3.5-0.02 15.98 0.03 15.98 0.03 21.69 4.64 8.73 11.12 6.15 31.32 4.56 44.62-0.61 4.07-1.49 8.02-2.5 12.01q-0.24 0.96-0.49 1.95c-3.82 14.79-10.32 28.86-18.89 41.49-0.59 0.88-0.59 0.88-1.2 1.78-6.97 9.84-15.59 18.02-24.52 26.03-20.5 16.81-20.5 16.81-31.09 39.82 0 4.71 0.34 9.3 0.88 13.97 0.56 7.07-0.06 14.11-0.53 21.17q-0.23 3.62-0.38 7.23c-0.91 19.66-0.91 19.66-4.34 24.97q-0.92 0.81-1.88 1.65-1.07 0.96-2.17 1.96-1.18 0.97-2.39 1.98-1.24 1.04-2.52 2.11-2.72 2.24-5.47 4.45c-3.87 3.14-7.65 6.37-11.42 9.63-9.97 8.54-9.97 8.54-16.59 8.81-5.67-1.13-8.99-3.26-12.95-7.31q-0.83-0.81-1.69-1.65-2.77-2.75-5.52-5.52-1.99-1.97-3.98-3.94-5.4-5.36-10.76-10.75-4.49-4.49-9-8.97-10.61-10.58-21.2-21.19-10.91-10.94-21.88-21.83-9.42-9.36-18.8-18.76-5.6-5.61-11.22-11.19-5.29-5.25-10.54-10.54-1.92-1.94-3.87-3.86c-12.26-12.1-12.26-12.1-12.59-20.49 1.54-5.36 4.46-9.16 8.12-13.25q1.49-1.7 2.97-3.41 0.74-0.84 1.49-1.7c2.07-2.4 4.06-4.86 6.04-7.33 14.11-17.3 14.11-17.3 21.92-18.11 5.04-0.41 10.09-0.67 15.14-0.92 1.81-0.09 1.81-0.09 3.66-0.19q5.77-0.3 11.53-0.59 5.76-0.29 11.52-0.59 3.57-0.19 7.14-0.36 3.25-0.17 6.5-0.39c2.97-0.16 2.97-0.16 5.64-0.1 6.86-0.06 10.06-2.8 14.79-7.6q1.29-1.38 2.61-2.8 1.41-1.44 2.81-2.87 3.69-3.78 7.33-7.61 6.49-6.8 13.05-13.52 0.7-0.71 1.42-1.45c7.54-7.71 15.24-14.4 24.32-20.21q1.19-0.77 2.41-1.57 2.74-1.71 5.59-3.24 0.98-0.54 1.99-1.1c19.27-10.35 39.91-15.49 61.76-15.34zm-54.69 41.44q-1.05 0.64-2.13 1.29c-1.71 1.09-3.33 2.3-4.93 3.52-0.32 3.05-0.32 3.05 1.67 5.03q1.17 1.16 2.37 2.35 1.31 1.31 2.67 2.67 1.46 1.43 2.91 2.87 1.49 1.47 2.96 2.94 3.9 3.88 7.82 7.74 3.98 3.95 7.96 7.91 7.81 7.75 15.64 15.49c2.99-2.86 5.54-5.46 7.5-9.12q0.61-1.14 1.24-2.31c0.62-1.21 0.62-1.21 1.26-2.45q0.65-1.25 1.32-2.54c8.37-16.51 11.07-32.24 10.68-50.58-21.45-0.98-40.56 3.95-58.94 15.19zm-30.73 26.23q-1 1-2.03 2.03-1.14 1.15-2.32 2.32-1.26 1.27-2.56 2.58-1.33 1.33-2.69 2.69-3.66 3.66-7.31 7.34-3.81 3.83-7.63 7.65-7.24 7.24-14.46 14.5-8.23 8.26-16.47 16.5-16.94 16.98-33.86 33.97c1.65 3.49 3.52 5.76 6.27 8.49q1.31 1.32 2.67 2.67 1.44 1.43 2.88 2.86 1.48 1.47 2.95 2.94 3.88 3.86 7.76 7.71 3.97 3.94 7.93 7.88 7.76 7.74 15.54 15.45c3.23-1.42 5.38-3.13 7.86-5.62q1.13-1.12 2.29-2.28c1.22-1.23 1.22-1.23 2.47-2.5q1.3-1.29 2.64-2.63 3.56-3.57 7.12-7.14 3.72-3.74 7.45-7.47 7.05-7.07 14.1-14.14 8.02-8.06 16.05-16.1 16.52-16.55 33.02-33.12c-1.64-3.48-3.51-5.76-6.23-8.49q-1.31-1.32-2.65-2.67-1.44-1.43-2.87-2.86-1.47-1.47-2.94-2.94-3.07-3.07-6.15-6.14-3.95-3.94-7.89-7.9-3.03-3.03-6.06-6.06-1.46-1.45-2.91-2.91-2.03-2.03-4.07-4.05-1.15-1.15-2.33-2.34c-2.42-2.09-3.11-2.31-5.57-0.22zm-97.54 37.35c-5.65-0.12-9.84-0.03-14.02 3.98-2.91 3.2-5.39 6.64-7.77 10.25-1.32 1.98-2.64 3.96-4 6 4.62 4.62 9.24 9.24 14 14 3.29-1.65 4.83-2.58 7.3-5.06q0.93-0.92 1.88-1.87 0.98-0.99 1.99-2.01 1.02-1.02 2.07-2.07 2.16-2.16 4.31-4.33 3.3-3.33 6.63-6.65 2.09-2.1 4.18-4.2 0.99-1 2.02-2.02 0.9-0.92 1.84-1.86 0.8-0.81 1.63-1.65c1.26-1.12 1.26-1.12 1.15-2.28q-6.91-0.08-13.82-0.02c-3.14 0.03-6.25-0.02-9.39-0.21zm105.84 86.48q-0.87 0.88-1.77 1.78-0.99 0.99-2 2-1.07 1.08-2.18 2.19-1.09 1.09-2.21 2.22-3.52 3.53-7.03 7.06-2.38 2.39-4.76 4.77-5.84 5.86-11.68 11.73c1.35 2.8 2.6 4.84 4.82 7.02q0.8 0.78 1.62 1.6 0.83 0.8 1.68 1.63 0.85 0.83 1.71 1.68 2.08 2.04 4.17 4.07 2.78-2.02 5.49-4.13c2.51-1.87 2.51-1.87 5.46-3.71 4.49-3.06 7.55-5.27 8.97-10.66 0.23-3.45 0.29-6.77 0.16-10.22-0.09-2.44-0.08-4.87-0.06-7.32q0.05-6.48-0.02-12.96c-1.19-0.11-1.19-0.11-2.37 1.25z"/>
		<path id="path17" class="s1" d="m86 198c3.98 2.25 6.55 4.64 8 9 0.56 5.8-0.63 9.38-4 14-3.48 3.92-7.18 7.6-10.9 11.3q-1.62 1.62-3.23 3.24-3.38 3.39-6.78 6.76-4.33 4.31-8.64 8.65-3.33 3.35-6.68 6.68-1.59 1.59-3.18 3.19-2.23 2.24-4.47 4.45-1.27 1.26-2.57 2.56c-3.78 3.22-7.09 5.01-12.05 5.54-4.88-0.52-8.05-1.77-11.37-5.43-1.72-4.47-2.02-8.24-1.13-12.94 1.2-1.86 1.2-1.86 2.84-3.62q0.96-1.03 1.94-2.09 6.61-6.82 13.33-13.54 1.6-1.59 3.19-3.18 3.31-3.32 6.63-6.63 4.25-4.24 8.49-8.5 3.28-3.28 6.56-6.55 1.57-1.57 3.13-3.14 2.18-2.18 4.37-4.36 1.23-1.23 2.5-2.5c4.08-3.82 8.67-3.75 14.02-2.89z"/>
		<path id="path18" class="s0" d="m118.69 230.19c3.42 2.68 5.84 4.67 6.8 9.08 0.36 4.61-0.02 7.84-3.05 11.42q-2.19 2.18-4.44 4.31-1.87 1.89-3.73 3.8-4 4.07-8.04 8.1-0.86 0.86-1.74 1.74c-3.29 3.01-6.67 2.75-10.94 2.71-4.17-0.57-5.74-2.26-8.55-5.35-2.55-3.47-2.36-6.79-2-11 2.29-6.15 6.73-10.17 11.31-14.69q1.12-1.13 2.27-2.3c6.32-6.29 12.82-11.93 22.11-7.82z"/>
	</g>
</svg>